<?xml version="1.0" encoding="utf-8"?>
<!-- Svg Vector Icons : http://www.onlinewebfonts.com/icon -->
<!DOCTYPE svg PUBLIC "-//W3C//DTD SVG 1.1//EN" "http://www.w3.org/Graphics/SVG/1.1/DTD/svg11.dtd">
<svg version="1.1" xmlns="http://www.w3.org/2000/svg" xmlns:xlink="http://www.w3.org/1999/xlink" x="0px" y="0px" viewBox="0 0 1000 1000" enable-background="new 0 0 1000 1000" xml:space="preserve">
<metadata> Svg Vector Icons : http://www.onlinewebfonts.com/icon </metadata>
<g><g transform="translate(0.000000,511.000000) scale(0.100000,-0.100000)"><path fill="blue
" d="M7532.9,3735.3c-104.3-28.7-263.3-88.6-351.9-135.6c-187.7-101.7-503.1-388.4-617.8-565.7c-62.6-99.1-106.9-135.6-203.3-172.1c-414.5-153.8-1055.8-547.5-1525-933.3c-385.8-318-956.7-917.6-1264.4-1326.9l-265.9-351.9l-200.7-73c-112.1-39.1-419.7-159-685.6-260.7C543.8-819-225.2-1376.9,225.8-1679.3c284.2-190.3,1154.9-250.3,1605.9-109.5c424.9,130.3,930.7,466.6,1293,860.3l119.9,130.3L3442.7-905c237.2-127.7,602.2-252.9,1016.7-349.3l305-73v-119.9c0-67.8-13-245.1-28.7-396.3l-26.1-273.7l114.7-365l117.3-365l-276.3-7.8c-151.2-2.6-292-20.9-310.2-36.5c-52.1-41.7-41.7-172.1,15.6-203.3c28.7-13,205.9-26.1,393.6-26.1h344.1l237.2-221.6c148.6-138.2,260.7-221.6,297.2-221.6c52.1,0,138.2,86,138.2,138.2c0,10.4-60,86-133,164.2l-135.5,140.8H5742h232l226.8-221.6c226.8-224.2,310.2-263.3,383.2-190.3c70.4,70.4,36.5,161.6-104.3,286.8l-138.2,122.5l255.5,2.6c216.4,0,260.7,7.8,305,52.1c62.6,62.5,65.2,112.1,10.4,166.8c-33.9,33.9-112.1,41.7-443.2,41.7c-221.6,0-401.5,2.6-401.5,7.8c0,2.6-52.1,174.7-117.3,383.2l-119.9,378l127.8,117.3c599.6,555.3,756,680.4,975,797.7C7546-850.3,7877-341.9,8114.3,646.1c99.1,404.1,99.1,404.1,411.9,625.7c80.8,57.4,192.9,164.2,245.1,234.6c54.7,73,109.5,138.2,125.1,148.6c13,10.4,245.1,20.8,516.2,20.8c435.4,0,487.5,5.2,487.5,44.3c0,70.4-200.7,307.6-456.2,544.8l-242.4,219l-10.4,242.4c-10.4,195.5-26.1,268.5-86,396.2C8857.2,3638.8,8176.8,3904.7,7532.9,3735.3z M8513.1,2940.2c156.4-130.3,122.5-370.2-62.5-445.8c-117.3-49.5-206-31.3-302.4,62.6c-57.4,52.1-73,91.2-73,182.5C8075.2,2974.1,8333.3,3091.4,8513.1,2940.2z M7160.1,1068.4c109.5-135.6,153.8-774.3,73-1087.1c-156.4-591.8-623.1-1048-1295.6-1264.3c-78.2-26.1-159-57.4-174.7-70.4c-44.3-33.9-18.3-73,46.9-73c65.2,0,52.1-54.8-67.8-273.7c-46.9-86-109.5-203.3-140.8-260.7l-52.1-104.3l114.7-365c65.2-200.7,117.3-380.6,117.3-396.3c0-26.1-73-33.9-281.5-33.9H5218L5098.1-2477l-122.5,385.8l164.2,338.9c260.7,542.2,258.1,537,539.6,636.1C6292-902.4,6717-594.8,6886.4-245.5c135.5,278.9,182.5,677.8,117.3,982.8c-54.8,255.5-54.8,286.8-23.5,325.9C7019.4,1112.7,7121,1115.4,7160.1,1068.4z"/></g></g>
</svg>
